<svg width="126" height="37" viewBox="0 0 126 37" fill="none" xmlns="http://www.w3.org/2000/svg">
<rect x="0.5" y="0.5" width="125" height="35" stroke="#215EE3"/>
<path d="M28.1198 18.0037C28.0927 15.0708 30.5828 13.6439 30.6967 13.5775C29.2864 11.5728 27.1006 11.2989 26.3324 11.277C24.4966 11.0886 22.7158 12.3481 21.7806 12.3481C20.8267 12.3481 19.3866 11.2952 17.8344 11.3262C15.8371 11.3562 13.9686 12.4837 12.9438 14.2345C10.8288 17.8044 12.4062 23.0506 14.4324 25.9362C15.446 27.3494 16.6304 28.9274 18.1807 28.8719C19.6974 28.8109 20.2639 27.9291 22.0942 27.9291C23.9076 27.9291 24.4396 28.8719 26.0207 28.8364C27.6484 28.8109 28.6732 27.4168 29.6514 25.9908C30.8227 24.371 31.2931 22.7758 31.3118 22.6939C31.2735 22.6811 28.1506 21.5191 28.1198 18.0037Z" fill="#215EE3"/>
<path d="M25.1332 9.37822C25.9489 8.38359 26.5071 7.03042 26.3521 5.65723C25.1715 5.70819 23.6949 6.45348 22.8447 7.42627C22.0924 8.28349 21.4204 9.68853 21.594 11.0099C22.9203 11.1064 24.282 10.3574 25.1332 9.37822Z" fill="#215EE3"/>
<path d="M50.068 28.6679H47.9484L46.7873 25.1107H42.7516L41.6456 28.6679H39.582L43.5804 16.5576H46.05L50.068 28.6679ZM46.4373 23.6183L45.3873 20.456C45.2763 20.133 45.0681 19.3722 44.7611 18.1747H44.7237C44.6015 18.6897 44.4045 19.4505 44.1339 20.456L43.1025 23.6183H46.4373Z" fill="#215EE3"/>
<path d="M60.3516 24.1949C60.3516 25.68 59.94 26.8539 59.1168 27.7157C58.3794 28.4828 57.4638 28.8659 56.3709 28.8659C55.1912 28.8659 54.3437 28.4528 53.8276 27.6265H53.7902V32.2266H51.8004V22.8108C51.8004 21.8771 51.7752 20.9189 51.7266 19.9361H53.4766L53.5877 21.3202H53.625C54.2886 20.2774 55.2957 19.7568 56.6472 19.7568C57.7037 19.7568 58.5857 20.1636 59.2913 20.9781C59.9988 21.7934 60.3516 22.8654 60.3516 24.1949ZM58.3244 24.2659C58.3244 23.4159 58.1284 22.7152 57.7345 22.1638C57.3042 21.5887 56.7265 21.3011 56.0022 21.3011C55.5113 21.3011 55.0652 21.4613 54.6666 21.777C54.2672 22.0955 54.0058 22.5114 53.8836 23.0265C53.822 23.2667 53.7912 23.4633 53.7912 23.618V25.074C53.7912 25.7091 53.9909 26.2451 54.3904 26.6828C54.7898 27.1206 55.3088 27.339 55.9472 27.339C56.6966 27.339 57.28 27.0569 57.6972 26.4945C58.1153 25.9312 58.3244 25.1886 58.3244 24.2659Z" fill="#215EE3"/>
<path d="M70.6513 24.1949C70.6513 25.68 70.2397 26.8539 69.4156 27.7157C68.6792 28.4828 67.7636 28.8659 66.6706 28.8659C65.4909 28.8659 64.6434 28.4528 64.1282 27.6265H64.0909V32.2266H62.101V22.8108C62.101 21.8771 62.0758 20.9189 62.0273 19.9361H63.7773L63.8884 21.3202H63.9257C64.5884 20.2774 65.5954 19.7568 66.9478 19.7568C68.0034 19.7568 68.8854 20.1636 69.5929 20.9781C70.2976 21.7934 70.6513 22.8654 70.6513 24.1949ZM68.6241 24.2659C68.6241 23.4159 68.4272 22.7152 68.0333 22.1638C67.603 21.5887 67.0272 21.3011 66.302 21.3011C65.8101 21.3011 65.3649 21.4613 64.9654 21.777C64.566 22.0955 64.3056 22.5114 64.1833 23.0265C64.1226 23.2667 64.0909 23.4633 64.0909 23.618V25.074C64.0909 25.7091 64.2906 26.2451 64.6882 26.6828C65.0877 27.1196 65.6066 27.339 66.2469 27.339C66.9964 27.339 67.5797 27.0569 67.9969 26.4945C68.415 25.9312 68.6241 25.1886 68.6241 24.2659Z" fill="#215EE3"/>
<path d="M82.1685 25.2725C82.1685 26.3026 81.8017 27.1407 81.0653 27.7877C80.2561 28.4948 79.1296 28.8479 77.682 28.8479C76.3454 28.8479 75.274 28.5967 74.4629 28.0935L74.924 26.4764C75.7976 26.9915 76.7561 27.2499 77.8005 27.2499C78.55 27.2499 79.1333 27.0843 79.5524 26.7549C79.9696 26.4254 80.1777 25.9832 80.1777 25.4317C80.1777 24.9403 80.006 24.5263 79.6616 24.1905C79.319 23.8547 78.7469 23.5426 77.948 23.2541C75.7733 22.4633 74.6869 21.3049 74.6869 19.7815C74.6869 18.786 75.0677 17.9697 75.8302 17.3345C76.59 16.6984 77.6036 16.3809 78.871 16.3809C80.0013 16.3809 80.9402 16.5729 81.6897 16.956L81.1922 18.5376C80.4922 18.1663 79.7008 17.9806 78.815 17.9806C78.115 17.9806 77.5681 18.149 77.1761 18.4839C76.8448 18.7833 76.6786 19.1482 76.6786 19.5804C76.6786 20.0591 76.8681 20.4549 77.2489 20.7661C77.5802 21.0537 78.1822 21.3649 79.0558 21.7007C80.1245 22.1202 80.9094 22.6107 81.4144 23.1731C81.9174 23.7337 82.1685 24.4353 82.1685 25.2725Z" fill="#215EE3"/>
<path d="M88.7493 21.3921H86.556V25.6318C86.556 26.7101 86.9424 27.2488 87.717 27.2488C88.0726 27.2488 88.3676 27.2188 88.6009 27.1587L88.656 28.632C88.264 28.7749 87.7478 28.8468 87.1085 28.8468C86.3226 28.8468 85.7085 28.6129 85.2652 28.1461C84.8237 27.6783 84.6016 26.8939 84.6016 25.7919V21.3902H83.2949V19.9342H84.6016V18.3354L86.556 17.7603V19.9342H88.7493V21.3921Z" fill="#215EE3"/>
<path d="M98.6435 24.2305C98.6435 25.5727 98.2496 26.6747 97.4638 27.5365C96.6396 28.4237 95.5458 28.866 94.1822 28.866C92.868 28.866 91.8218 28.441 91.0415 27.5911C90.2612 26.7412 89.8711 25.6683 89.8711 24.3752C89.8711 23.022 90.2724 21.9136 91.0779 21.0518C91.8815 20.1892 92.966 19.7578 94.3296 19.7578C95.6438 19.7578 96.7012 20.1828 97.4992 21.0336C98.2627 21.859 98.6435 22.9246 98.6435 24.2305ZM96.579 24.2933C96.579 23.4879 96.4026 22.7972 96.0451 22.2212C95.6279 21.5241 95.0315 21.1765 94.2587 21.1765C93.4588 21.1765 92.8512 21.525 92.434 22.2212C92.0766 22.7981 91.9002 23.4997 91.9002 24.3297C91.9002 25.135 92.0766 25.8257 92.434 26.4008C92.8643 27.0979 93.4654 27.4455 94.241 27.4455C95.0007 27.4455 95.5971 27.0906 96.0274 26.3826C96.3942 25.7957 96.579 25.0977 96.579 24.2933Z" fill="#215EE3"/>
<path d="M105.112 21.6424C104.915 21.6069 104.705 21.5887 104.485 21.5887C103.785 21.5887 103.243 21.8462 102.862 22.3622C102.531 22.8172 102.365 23.3923 102.365 24.0866V28.6685H100.376L100.395 22.6861C100.395 21.6797 100.37 20.7633 100.32 19.937H102.053L102.126 21.6078H102.181C102.391 21.0336 102.722 20.5713 103.176 20.2246C103.619 19.9124 104.098 19.7568 104.614 19.7568C104.798 19.7568 104.964 19.7696 105.112 19.7923V21.6424Z" fill="#215EE3"/>
<path d="M114.013 23.8894C114.013 24.237 113.989 24.53 113.94 24.7693H107.97C107.994 25.632 108.282 26.2918 108.837 26.7468C109.34 27.1535 109.99 27.3574 110.789 27.3574C111.673 27.3574 112.479 27.22 113.205 26.9442L113.516 28.291C112.669 28.6514 111.668 28.8307 110.514 28.8307C109.125 28.8307 108.035 28.4321 107.242 27.6358C106.45 26.8396 106.053 25.7703 106.053 24.429C106.053 23.1122 106.422 22.0157 107.16 21.1412C107.933 20.2075 108.977 19.7407 110.292 19.7407C111.582 19.7407 112.56 20.2075 113.223 21.1412C113.749 21.8828 114.013 22.8001 114.013 23.8894ZM112.115 23.3861C112.128 22.811 111.999 22.3142 111.729 21.8946C111.385 21.355 110.855 21.0857 110.143 21.0857C109.493 21.0857 108.964 21.3486 108.559 21.8764C108.228 22.296 108.031 22.7992 107.97 23.3852H112.115V23.3861Z" fill="#215EE3"/>
<path d="M45.7794 9.10782C45.7794 10.1789 45.45 10.9852 44.792 11.5266C44.1825 12.0262 43.3164 12.2765 42.1945 12.2765C41.6382 12.2765 41.1622 12.2528 40.7637 12.2055V6.35325C41.2836 6.27135 41.8436 6.22949 42.4484 6.22949C43.517 6.22949 44.3225 6.45608 44.8657 6.90926C45.4742 7.42159 45.7794 8.15414 45.7794 9.10782ZM44.7481 9.13421C44.7481 8.43988 44.5596 7.90753 44.1825 7.53625C43.8054 7.16588 43.2548 6.98024 42.5296 6.98024C42.2216 6.98024 41.9593 7.00026 41.7418 7.04212V11.4912C41.8622 11.5094 42.0825 11.5175 42.4026 11.5175C43.1512 11.5175 43.7289 11.3146 44.1358 10.9088C44.5428 10.5029 44.7481 9.91135 44.7481 9.13421Z" fill="#215EE3"/>
<path d="M51.2487 10.0434C51.2487 10.7032 51.0555 11.2437 50.6691 11.6678C50.2641 12.1037 49.7274 12.3211 49.0573 12.3211C48.4114 12.3211 47.8971 12.1128 47.5135 11.6942C47.1309 11.2765 46.9395 10.7496 46.9395 10.1144C46.9395 9.4501 47.1365 8.90501 47.5322 8.48186C47.9279 8.05871 48.4599 7.84668 49.1301 7.84668C49.7759 7.84668 50.2949 8.05507 50.6878 8.47276C51.0611 8.87862 51.2487 9.40278 51.2487 10.0434ZM50.2342 10.0744C50.2342 9.67851 50.1465 9.33908 49.9719 9.05607C49.7666 8.71391 49.4745 8.54283 49.0946 8.54283C48.7017 8.54283 48.403 8.71391 48.1977 9.05607C48.0222 9.33908 47.9354 9.68397 47.9354 10.0916C47.9354 10.4875 48.0231 10.8269 48.1977 11.1099C48.4095 11.4521 48.7045 11.6232 49.0853 11.6232C49.4586 11.6232 49.7517 11.4494 49.9626 11.1008C50.1437 10.8124 50.2342 10.4702 50.2342 10.0744Z" fill="#215EE3"/>
<path d="M58.5817 7.93457L57.205 12.2243H56.309L55.7387 10.3615C55.5941 9.89653 55.4765 9.43425 55.385 8.97561H55.3673C55.2823 9.44699 55.1647 9.90836 55.0135 10.3615L54.4078 12.2243H53.5015L52.207 7.93457H53.2122L53.7097 9.97388C53.8301 10.4561 53.929 10.9157 54.0083 11.3507H54.0261C54.0989 10.9921 54.2193 10.5353 54.3891 9.98298L55.0135 7.93548H55.8106L56.4089 9.9393C56.5535 10.4279 56.6711 10.8984 56.7617 11.3516H56.7887C56.855 10.9102 56.9549 10.4398 57.0874 9.9393L57.6213 7.93548H58.5817V7.93457Z" fill="#215EE3"/>
<path d="M63.6514 12.2236H62.6732V9.76658C62.6732 9.00946 62.3783 8.6309 61.7866 8.6309C61.4963 8.6309 61.262 8.73464 61.0801 8.94303C60.8999 9.15142 60.8085 9.39712 60.8085 9.67831V12.2227H59.8303V9.15961C59.8303 8.78287 59.8182 8.37428 59.7949 7.93202H60.6545L60.7002 8.60269H60.7273C60.8411 8.3943 61.011 8.22231 61.2341 8.0849C61.4991 7.92474 61.7959 7.84375 62.1207 7.84375C62.5314 7.84375 62.873 7.97297 63.1446 8.23232C63.4824 8.54991 63.6514 9.02402 63.6514 9.65375V12.2236Z" fill="#215EE3"/>
<path d="M66.3503 12.2239H65.373V5.96582H66.3503V12.2239Z" fill="#215EE3"/>
<path d="M72.108 10.0434C72.108 10.7032 71.9148 11.2437 71.5284 11.6678C71.1233 12.1037 70.5857 12.3211 69.9165 12.3211C69.2697 12.3211 68.7554 12.1128 68.3727 11.6942C67.9901 11.2765 67.7988 10.7496 67.7988 10.1144C67.7988 9.4501 67.9957 8.90501 68.3914 8.48186C68.7872 8.05871 69.3192 7.84668 69.9884 7.84668C70.6352 7.84668 71.1532 8.05507 71.547 8.47276C71.9204 8.87862 72.108 9.40278 72.108 10.0434ZM71.0925 10.0744C71.0925 9.67851 71.0048 9.33908 70.8302 9.05607C70.6258 8.71391 70.3327 8.54283 69.9538 8.54283C69.5599 8.54283 69.2613 8.71391 69.0569 9.05607C68.8814 9.33908 68.7946 9.68397 68.7946 10.0916C68.7946 10.4875 68.8824 10.8269 69.0569 11.1099C69.2688 11.4521 69.5637 11.6232 69.9445 11.6232C70.3178 11.6232 70.61 11.4494 70.8209 11.1008C71.0029 10.8124 71.0925 10.4702 71.0925 10.0744Z" fill="#215EE3"/>
<path d="M76.8425 12.2238H75.9642L75.8914 11.7296H75.8644C75.5638 12.1237 75.1354 12.3211 74.5792 12.3211C74.1638 12.3211 73.8278 12.191 73.5749 11.9326C73.3453 11.6978 73.2305 11.4057 73.2305 11.059C73.2305 10.5348 73.4545 10.1353 73.9053 9.85869C74.3552 9.58205 74.988 9.44646 75.8028 9.45283V9.37275C75.8028 8.80764 75.4985 8.52554 74.889 8.52554C74.455 8.52554 74.0724 8.63201 73.742 8.84313L73.5432 8.21705C73.952 7.97044 74.4569 7.84668 75.0524 7.84668C76.2022 7.84668 76.779 8.43818 76.779 9.62118V11.2009C76.779 11.6295 76.8005 11.9708 76.8425 12.2238ZM75.827 10.7496V10.088C74.7481 10.0698 74.2086 10.3583 74.2086 10.9525C74.2086 11.1764 74.2702 11.3438 74.3962 11.4557C74.5222 11.5677 74.6828 11.6232 74.8741 11.6232C75.0888 11.6232 75.2894 11.5567 75.4724 11.4248C75.6562 11.2919 75.7692 11.1236 75.8112 10.917C75.8214 10.8706 75.827 10.8142 75.827 10.7496Z" fill="#215EE3"/>
<path d="M82.3992 12.2239H81.5312L81.4855 11.535H81.4584C81.1812 12.0592 80.709 12.3213 80.0454 12.3213C79.5152 12.3213 79.0738 12.1183 78.7238 11.7125C78.3738 11.3066 78.1992 10.7797 78.1992 10.1327C78.1992 9.43838 78.3887 8.876 78.7695 8.44648C79.1382 8.04608 79.5899 7.84588 80.1275 7.84588C80.7183 7.84588 81.1318 8.03971 81.367 8.42828H81.3856V5.96582H82.3647V11.0682C82.3647 11.4859 82.3759 11.8708 82.3992 12.2239ZM81.3856 10.4148V9.69955C81.3856 9.57579 81.3763 9.47569 81.3586 9.39925C81.3035 9.16993 81.185 8.97701 81.0048 8.8214C80.8228 8.66579 80.6035 8.58753 80.3506 8.58753C79.9856 8.58753 79.7 8.72858 79.49 9.01159C79.2819 9.2946 79.1764 9.65587 79.1764 10.0972C79.1764 10.5213 79.2763 10.8653 79.477 11.1301C79.6888 11.4122 79.9744 11.5532 80.3319 11.5532C80.653 11.5532 80.9096 11.4358 81.1047 11.2001C81.2932 10.9826 81.3856 10.7206 81.3856 10.4148Z" fill="#215EE3"/>
<path d="M90.7643 10.0434C90.7643 10.7032 90.5711 11.2437 90.1847 11.6678C89.7796 12.1037 89.2439 12.3211 88.5728 12.3211C87.9279 12.3211 87.4136 12.1128 87.0291 11.6942C86.6464 11.2765 86.4551 10.7496 86.4551 10.1144C86.4551 9.4501 86.652 8.90501 87.0478 8.48186C87.4435 8.05871 87.9755 7.84668 88.6466 7.84668C89.2915 7.84668 89.8114 8.05507 90.2034 8.47276C90.5767 8.87862 90.7643 9.40278 90.7643 10.0434ZM89.7507 10.0744C89.7507 9.67851 89.663 9.33908 89.4884 9.05607C89.2822 8.71391 88.991 8.54283 88.6102 8.54283C88.2182 8.54283 87.9195 8.71391 87.7132 9.05607C87.5378 9.33908 87.451 9.68397 87.451 10.0916C87.451 10.4875 87.5387 10.8269 87.7132 11.1099C87.9251 11.4521 88.22 11.6232 88.6008 11.6232C88.9742 11.6232 89.2682 11.4494 89.4791 11.1008C89.6592 10.8124 89.7507 10.4702 89.7507 10.0744Z" fill="#215EE3"/>
<path d="M96.0255 12.2236H95.0483V9.76658C95.0483 9.00946 94.7534 8.6309 94.1607 8.6309C93.8704 8.6309 93.6362 8.73464 93.4551 8.94303C93.274 9.15142 93.1835 9.39712 93.1835 9.67831V12.2227H92.2044V9.15961C92.2044 8.78287 92.1932 8.37428 92.1699 7.93202H93.0286L93.0743 8.60269H93.1014C93.2162 8.3943 93.386 8.22231 93.6082 8.0849C93.8742 7.92474 94.17 7.84375 94.4958 7.84375C94.9055 7.84375 95.2471 7.97297 95.5187 8.23232C95.8575 8.54991 96.0255 9.02402 96.0255 9.65375V12.2236Z" fill="#215EE3"/>
<path d="M102.608 8.64792H101.531V10.7318C101.531 11.2614 101.722 11.5262 102.101 11.5262C102.276 11.5262 102.422 11.5117 102.537 11.4817L102.562 12.2051C102.369 12.2761 102.115 12.3116 101.802 12.3116C101.416 12.3116 101.115 12.1969 100.898 11.9676C100.679 11.7383 100.571 11.3524 100.571 10.811V8.64792H99.9277V7.93357H100.571V7.14733L101.53 6.86523V7.93266H102.607V8.64792H102.608Z" fill="#215EE3"/>
<path d="M107.786 12.2239H106.807V9.78509C106.807 9.01614 106.512 8.63121 105.921 8.63121C105.468 8.63121 105.158 8.85416 104.988 9.30006C104.959 9.39379 104.942 9.50845 104.942 9.64313V12.223H103.965V5.96582H104.942V8.55113H104.961C105.269 8.08066 105.71 7.84588 106.282 7.84588C106.688 7.84588 107.023 7.9751 107.289 8.23445C107.62 8.5575 107.786 9.03798 107.786 9.67316V12.2239Z" fill="#215EE3"/>
<path d="M113.127 9.87636C113.127 10.0474 113.114 10.1912 113.091 10.3086H110.157C110.17 10.7326 110.31 11.0557 110.582 11.2795C110.83 11.4797 111.15 11.5798 111.542 11.5798C111.976 11.5798 112.372 11.5125 112.728 11.3769L112.881 12.0394C112.464 12.2159 111.973 12.3042 111.405 12.3042C110.724 12.3042 110.187 12.1085 109.799 11.7172C109.409 11.3259 109.215 10.8009 109.215 10.142C109.215 9.49507 109.395 8.95635 109.759 8.52683C110.137 8.06819 110.65 7.83887 111.297 7.83887C111.929 7.83887 112.41 8.06819 112.735 8.52683C112.997 8.89083 113.127 9.34128 113.127 9.87636ZM112.194 9.62975C112.201 9.34674 112.137 9.10286 112.004 8.8972C111.834 8.63239 111.576 8.49953 111.226 8.49953C110.907 8.49953 110.646 8.62875 110.447 8.8881C110.285 9.09467 110.189 9.34128 110.157 9.62975H112.194Z" fill="#215EE3"/>
</svg>
