<svg width="126" height="37" viewBox="0 0 126 37" fill="none" xmlns="http://www.w3.org/2000/svg">
<path d="M44.1958 9.32174C44.1958 10.0816 43.9628 10.6902 43.5038 11.1441C42.976 11.6821 42.2886 11.9528 41.4463 11.9528C40.6412 11.9528 39.9538 11.6775 39.39 11.135C38.8249 10.5844 38.543 9.90869 38.543 9.09992C38.543 8.29116 38.8249 7.61549 39.39 7.06949C39.9538 6.52235 40.6412 6.24707 41.4463 6.24707C41.8471 6.24707 42.2292 6.32784 42.5939 6.47799C42.9574 6.62927 43.2533 6.83402 43.4677 7.08655L42.9807 7.56658C42.6067 7.13546 42.0976 6.92275 41.4463 6.92275C40.8591 6.92275 40.35 7.12295 39.9177 7.52676C39.4902 7.93171 39.2758 8.4561 39.2758 9.09992C39.2758 9.74375 39.4902 10.2727 39.9177 10.6777C40.35 11.0769 40.8591 11.2817 41.4463 11.2817C42.0696 11.2817 42.5939 11.0769 43.0075 10.6731C43.2801 10.4058 43.4351 10.0373 43.4758 9.5663H41.4463V8.90882H44.1539C44.1865 9.05101 44.1958 9.18865 44.1958 9.32174Z" fill="#215EE3"/>
<path d="M48.4918 7.04206H45.9485V8.77106H48.2414V9.42853H45.9485V11.1576H48.4918V11.8276H45.2285V6.37207H48.4918V7.04206Z" fill="#215EE3"/>
<path d="M51.5223 11.8276H50.8023V7.04206H49.2422V6.37207H53.0835V7.04206H51.5223V11.8276Z" fill="#215EE3"/>
<path d="M55.8633 11.8276V6.37207H56.5821V11.8276H55.8633Z" fill="#215EE3"/>
<path d="M59.7683 11.8276H59.0541V7.04206H57.4883V6.37207H61.3342V7.04206H59.7683V11.8276Z" fill="#215EE3"/>
<path d="M68.6063 11.1259C68.0552 11.6775 67.3725 11.9528 66.5581 11.9528C65.7391 11.9528 65.0563 11.6775 64.5053 11.1259C63.9553 10.5753 63.6816 9.89959 63.6816 9.09992C63.6816 8.30026 63.9553 7.62459 64.5053 7.07404C65.0563 6.52235 65.7391 6.24707 66.5581 6.24707C67.3678 6.24707 68.0505 6.52235 68.6016 7.07859C69.1562 7.63369 69.43 8.30481 69.43 9.09992C69.43 9.89959 69.1562 10.5753 68.6063 11.1259ZM65.0377 10.6686C65.4524 11.0769 65.9569 11.2817 66.5581 11.2817C67.1546 11.2817 67.6637 11.0769 68.0738 10.6686C68.4874 10.2602 68.6971 9.73579 68.6971 9.09992C68.6971 8.46406 68.4874 7.93967 68.0738 7.53131C67.6637 7.12295 67.1546 6.9182 66.5581 6.9182C65.9569 6.9182 65.4524 7.12295 65.0377 7.53131C64.6241 7.93967 64.4144 8.46406 64.4144 9.09992C64.4144 9.73579 64.6241 10.2602 65.0377 10.6686Z" fill="#215EE3"/>
<path d="M70.4395 11.8276V6.37207H71.3133L74.0302 10.615H74.0617L74.0302 9.56617V6.37207H74.7491V11.8276H73.9987L71.1537 7.37535H71.1222L71.1537 8.42867V11.8276H70.4395Z" fill="#215EE3"/>
<path d="M63.5059 19.7944C61.3167 19.7944 59.5284 21.421 59.5284 23.6653C59.5284 25.8913 61.3167 27.535 63.5059 27.535C65.6997 27.535 67.4881 25.8913 67.4881 23.6653C67.4881 21.421 65.6997 19.7944 63.5059 19.7944ZM63.5059 26.0108C62.3047 26.0108 61.2713 25.0428 61.2713 23.6653C61.2713 22.2696 62.3047 21.3186 63.5059 21.3186C64.7071 21.3186 65.7451 22.2696 65.7451 23.6653C65.7451 25.0428 64.7071 26.0108 63.5059 26.0108ZM54.8273 19.7944C52.6335 19.7944 50.8498 21.421 50.8498 23.6653C50.8498 25.8913 52.6335 27.535 54.8273 27.535C57.02 27.535 58.8049 25.8913 58.8049 23.6653C58.8049 21.421 57.02 19.7944 54.8273 19.7944ZM54.8273 26.0108C53.625 26.0108 52.5881 25.0428 52.5881 23.6653C52.5881 22.2696 53.625 21.3186 54.8273 21.3186C56.0285 21.3186 57.0619 22.2696 57.0619 23.6653C57.0619 25.0428 56.0285 26.0108 54.8273 26.0108ZM44.5002 20.9808V22.6256H48.5232C48.4055 23.5447 48.0909 24.2204 47.6086 24.6913C47.0214 25.26 46.1068 25.8913 44.5002 25.8913C42.0245 25.8913 40.0858 23.9405 40.0858 21.5234C40.0858 19.1062 42.0245 17.1554 44.5002 17.1554C45.8389 17.1554 46.8129 17.6661 47.5317 18.3281L48.7189 17.169C47.7135 16.2317 46.376 15.5117 44.5002 15.5117C41.1052 15.5117 38.252 18.2087 38.252 21.5234C38.252 24.838 41.1052 27.535 44.5002 27.535C46.3352 27.535 47.7135 26.9481 48.797 25.847C49.9073 24.7629 50.2533 23.2387 50.2533 22.0079C50.2533 21.6257 50.2207 21.2742 50.1624 20.9808H44.5002ZM86.7291 22.2559C86.4017 21.3903 85.3916 19.7944 83.3341 19.7944C81.2952 19.7944 79.5977 21.363 79.5977 23.6653C79.5977 25.8333 81.2778 27.535 83.5298 27.535C85.3508 27.535 86.4017 26.451 86.8339 25.8197L85.4825 24.9404C85.0316 25.5842 84.4176 26.0108 83.5298 26.0108C82.6479 26.0108 82.0152 25.6161 81.6098 24.838L86.912 22.6961L86.7291 22.2559ZM81.3232 23.5447C81.2778 22.0523 82.5104 21.2879 83.3935 21.2879C84.0856 21.2879 84.6728 21.6257 84.8685 22.1092L81.3232 23.5447ZM77.0136 27.2996H78.7566V15.9246H77.0136V27.2996ZM74.1592 20.6566H74.101C73.7095 20.2039 72.9627 19.7944 72.0167 19.7944C70.0314 19.7944 68.2162 21.4961 68.2162 23.6778C68.2162 25.847 70.0314 27.535 72.0167 27.535C72.9627 27.535 73.7095 27.1221 74.101 26.6557H74.1592V27.2108C74.1592 28.6907 73.3495 29.4858 72.0435 29.4858C70.9786 29.4858 70.318 28.7351 70.0454 28.1038L68.5296 28.7214C68.9665 29.7475 70.1234 31.0101 72.0435 31.0101C74.087 31.0101 75.8113 29.8362 75.8113 26.9799V20.0298H74.1592V20.6566ZM72.1658 26.0108C70.9646 26.0108 69.9592 25.0291 69.9592 23.6778C69.9592 22.3139 70.9646 21.3186 72.1658 21.3186C73.3495 21.3186 74.2827 22.3139 74.2827 23.6778C74.2827 25.0291 73.3495 26.0108 72.1658 26.0108ZM94.8892 15.9246H90.7206V27.2996H92.4589V22.9896H94.8892C96.8197 22.9896 98.7129 21.6257 98.7129 19.4565C98.7129 17.2884 96.815 15.9246 94.8892 15.9246ZM94.9346 21.4073H92.4589V17.5068H94.9346C96.2325 17.5068 96.9735 18.559 96.9735 19.4565C96.9735 20.3369 96.2325 21.4073 94.9346 21.4073ZM105.68 19.7727C104.424 19.7727 103.118 20.3142 102.581 21.5142L104.124 22.1456C104.456 21.5142 105.066 21.3095 105.712 21.3095C106.613 21.3095 107.528 21.8384 107.542 22.7723V22.8918C107.227 22.7143 106.554 22.4516 105.726 22.4516C104.064 22.4516 102.371 23.3445 102.371 25.0109C102.371 26.5352 103.732 27.5168 105.262 27.5168C106.432 27.5168 107.077 27.0015 107.482 26.4021H107.542V27.2814H109.221V22.9179C109.221 20.9011 107.678 19.7727 105.68 19.7727ZM105.47 26.0062C104.902 26.0062 104.11 25.731 104.11 25.0428C104.11 24.1624 105.098 23.8245 105.953 23.8245C106.718 23.8245 107.077 23.9894 107.542 24.2067C107.406 25.26 106.477 26.0062 105.47 26.0062ZM115.337 20.0218L113.339 24.9529H113.28L111.214 20.0218H109.34L112.443 26.9128L110.672 30.7473H112.489L117.271 20.0218H115.337ZM99.6683 27.2996H101.411V15.9246H99.6683V27.2996Z" fill="#215EE3"/>
<path d="M9.72716 6.85992C9.45337 7.13975 9.29492 7.57541 9.29492 8.13961V28.2643C9.29492 28.8285 9.45337 29.2642 9.72716 29.544L9.79473 29.6054L21.3451 18.3328V18.0666L9.79473 6.79395L9.72716 6.85992Z" fill="#215EE3"/>
<path d="M25.1896 22.0926L21.3438 18.3332V18.067L25.1943 14.3076L25.2805 14.3565L29.8405 16.8897C31.1419 17.6086 31.1419 18.7916 29.8405 19.5151L25.2805 22.0437L25.1896 22.0926Z" fill="#215EE3"/>
<path d="M25.2814 22.0438L21.3446 18.2002L9.72656 29.5445C10.1588 29.9881 10.8637 30.0416 11.6653 29.5979L25.2814 22.0438Z" fill="#215EE3"/>
<path d="M25.2814 14.3564L11.6653 6.80234C10.8637 6.36327 10.1588 6.41673 9.72656 6.86035L21.3446 18.2001L25.2814 14.3564Z" fill="#215EE3"/>
<rect x="0.5" y="0.5" width="125" height="35" stroke="#215EE3"/>
</svg>
