<svg width="24" height="24" viewBox="0 0 24 24" fill="none" xmlns="http://www.w3.org/2000/svg">
<path d="M6.2625 5.05059C5.6956 5.05059 5.15192 5.2609 4.75106 5.63525C4.3502 6.00959 4.125 6.51732 4.125 7.04672V13.5604C4.125 14.0898 4.3502 14.5975 4.75106 14.9719C5.15192 15.3462 5.6956 15.5565 6.2625 15.5565H7.725V18.8504L12.7213 15.5565H17.7375C18.3044 15.5565 18.8481 15.3462 19.2489 14.9719C19.6498 14.5975 19.875 14.0898 19.875 13.5604V7.04672C19.875 6.51732 19.6498 6.00959 19.2489 5.63525C18.8481 5.2609 18.3044 5.05059 17.7375 5.05059H6.2625ZM3 7.04672C3 6.23868 3.34373 5.46374 3.95556 4.89236C4.5674 4.32099 5.39723 4 6.2625 4H17.7375C18.6028 4 19.4326 4.32099 20.0444 4.89236C20.6563 5.46374 21 6.23868 21 7.04672V13.5604C21 14.3684 20.6563 15.1434 20.0444 15.7148C19.4326 16.2861 18.6028 16.6071 17.7375 16.6071H13.0786L8.19615 19.8253C7.52565 20.2674 6.6 19.8194 6.6 19.0529V16.6071H6.2625C5.39723 16.6071 4.5674 16.2861 3.95556 15.7148C3.34373 15.1434 3 14.3684 3 13.5604V7.04672Z" fill="black"/>
</svg>
