<svg width="24" height="24" viewBox="0 0 24 24" fill="none" xmlns="http://www.w3.org/2000/svg">
<mask id="mask0_2301_21144" style="mask-type:alpha" maskUnits="userSpaceOnUse" x="0" y="0" width="24" height="24">
<rect x="24" y="24" width="24" height="24" transform="rotate(-180 24 24)" fill="#D9D9D9"/>
</mask>
<g mask="url(#mask0_2301_21144)">
<path d="M16.5769 3.99908L16.5769 14.9991L10.3077 21.1914L9.43845 20.3222L10.5654 14.9991L2 14.9991L2 11.8299L5.30385 3.99908L16.5769 3.99908ZM15.5769 4.99908L5.98078 4.99908L3 12.0183L3 13.9991L11.8077 13.9991L10.65 19.4606L15.5769 14.5722L15.5769 4.99908ZM16.5769 14.9991L16.5769 13.9991L20 13.9991L20 4.99908L16.5769 4.99908L16.5769 3.99908L21 3.99908L21 14.9991L16.5769 14.9991Z" fill="#1C1B1F"/>
<path d="M16.5769 3.99908L16.5769 14.9991L10.3077 21.1914L9.43845 20.3222L10.5654 14.9991L2 14.9991L2 11.8299L5.30385 3.99908L16.5769 3.99908ZM15.5769 4.99908L5.98078 4.99908L3 12.0183L3 13.9991L11.8077 13.9991L10.65 19.4606L15.5769 14.5722L15.5769 4.99908ZM16.5769 14.9991L16.5769 13.9991L20 13.9991L20 4.99908L16.5769 4.99908L16.5769 3.99908L21 3.99908L21 14.9991L16.5769 14.9991Z" fill="#1C1B1F"/>
</g>
</svg>
