<svg width="13" height="17" viewBox="0 0 13 17" fill="none" xmlns="http://www.w3.org/2000/svg">
<path d="M12 5.15011C12 6.28338 11.6906 7.39516 11.1053 8.36555L6.99679 15.1764C6.78306 15.5307 6.6762 15.7079 6.52036 15.7185C6.5068 15.7194 6.4932 15.7194 6.47964 15.7185C6.3238 15.7079 6.21694 15.5307 6.00321 15.1764L1.89472 8.36555C1.30936 7.39516 1 6.28338 1 5.15011V5.15011C1 2.85807 2.85807 1 5.15011 1H7.84989C10.1419 1 12 2.85807 12 5.15011V5.15011Z" stroke="#1E1E23" stroke-width="0.7"/>
<path d="M7.78064 5.4729C7.78064 6.04032 7.20719 6.5003 6.49982 6.5003C5.79244 6.5003 5.21899 6.04032 5.21899 5.4729C5.21899 4.90548 5.79244 4.4455 6.49982 4.4455C7.20719 4.4455 7.78064 4.90548 7.78064 5.4729Z" fill="#1E1E23"/>
</svg>
