<svg width="24" height="24" viewBox="0 0 24 24" fill="none" xmlns="http://www.w3.org/2000/svg">
<mask id="mask0_2301_21144" style="mask-type:alpha" maskUnits="userSpaceOnUse" x="0" y="0" width="24" height="24">
<rect width="24" height="24" fill="#D9D9D9"/>
</mask>
<g mask="url(#mask0_2301_21144)">
<path d="M7.42308 20.0009V9.00092L13.6923 2.80859L14.5615 3.67784L13.4346 9.00092H22V12.1701L18.6962 20.0009H7.42308ZM8.42308 19.0009H18.0192L21 11.9817V10.0009H12.1923L13.35 4.53937L8.42308 9.42784V19.0009ZM7.42308 9.00092V10.0009H4V19.0009H7.42308V20.0009H3V9.00092H7.42308Z" fill="#1C1B1F"/>
<path d="M7.42308 20.0009V9.00092L13.6923 2.80859L14.5615 3.67784L13.4346 9.00092H22V12.1701L18.6962 20.0009H7.42308ZM8.42308 19.0009H18.0192L21 11.9817V10.0009H12.1923L13.35 4.53937L8.42308 9.42784V19.0009ZM7.42308 9.00092V10.0009H4V19.0009H7.42308V20.0009H3V9.00092H7.42308Z" fill="#1C1B1F"/>
</g>
</svg>
